<svg width="1920" height="1080" viewBox="0 0 1920 1080" fill="none" xmlns="http://www.w3.org/2000/svg">
  <defs>
    <linearGradient id="bg" x1="176" y1="72" x2="1760" y2="1008" gradientUnits="userSpaceOnUse">
      <stop stop-color="#F7FBFF"/>
      <stop offset="0.52" stop-color="#F3F8FB"/>
      <stop offset="1" stop-color="#EDF6F4"/>
    </linearGradient>
    <radialGradient id="glowA" cx="0" cy="0" r="1" gradientUnits="userSpaceOnUse" gradientTransform="translate(1508 228) rotate(132.853) scale(598.479 440.928)">
      <stop stop-color="#A7F3D0" stop-opacity="0.36"/>
      <stop offset="1" stop-color="#A7F3D0" stop-opacity="0"/>
    </radialGradient>
    <radialGradient id="glowB" cx="0" cy="0" r="1" gradientUnits="userSpaceOnUse" gradientTransform="translate(248 910) rotate(-19.435) scale(542.103 334.226)">
      <stop stop-color="#BFDBFE" stop-opacity="0.4"/>
      <stop offset="1" stop-color="#BFDBFE" stop-opacity="0"/>
    </radialGradient>
    <linearGradient id="panel" x1="120" y1="108" x2="604" y2="948" gradientUnits="userSpaceOnUse">
      <stop stop-color="#FFFFFF" stop-opacity="0.88"/>
      <stop offset="1" stop-color="#FFFFFF" stop-opacity="0.7"/>
    </linearGradient>
    <linearGradient id="accent" x1="0" y1="0" x2="92" y2="92" gradientUnits="userSpaceOnUse">
      <stop stop-color="#14B8A6"/>
      <stop offset="1" stop-color="#0F766E"/>
    </linearGradient>
    <linearGradient id="cardBorder" x1="664" y1="224" x2="1768" y2="884" gradientUnits="userSpaceOnUse">
      <stop stop-color="#DDEAF1"/>
      <stop offset="1" stop-color="#D6E7E3"/>
    </linearGradient>
    <filter id="shadow" x="84" y="82" width="1752" height="926" filterUnits="userSpaceOnUse" color-interpolation-filters="sRGB">
      <feFlood flood-opacity="0" result="BackgroundImageFix"/>
      <feColorMatrix in="SourceAlpha" type="matrix" values="0 0 0 0 0 0 0 0 0 0 0 0 0 0 0 0 0 0 127 0" result="hardAlpha"/>
      <feOffset dy="18"/>
      <feGaussianBlur stdDeviation="18"/>
      <feColorMatrix type="matrix" values="0 0 0 0 0.0588235 0 0 0 0 0.141176 0 0 0 0 0.219608 0 0 0 0.08 0"/>
      <feBlend mode="normal" in2="BackgroundImageFix" result="effect1_dropShadow_0_1"/>
      <feBlend mode="normal" in="SourceGraphic" in2="effect1_dropShadow_0_1" result="shape"/>
    </filter>
    <pattern id="dots" x="0" y="0" width="28" height="28" patternUnits="userSpaceOnUse">
      <circle cx="2" cy="2" r="2" fill="#C8D7E1" fill-opacity="0.42"/>
    </pattern>
  </defs>

  <rect width="1920" height="1080" fill="url(#bg)"/>
  <rect width="1920" height="1080" fill="url(#dots)" opacity="0.22"/>
  <ellipse cx="1508" cy="228" rx="516" ry="364" fill="url(#glowA)"/>
  <ellipse cx="248" cy="910" rx="428" ry="246" fill="url(#glowB)"/>
  <path d="M1278 74C1435 92 1582 168 1692 294C1775 389 1822 500 1834 610" stroke="#CFE4E0" stroke-width="2"/>
  <path d="M1224 100C1388 114 1533 187 1642 302C1732 397 1784 518 1798 640" stroke="#D8E8EE" stroke-width="2"/>

  <g filter="url(#shadow)">
    <rect x="120" y="100" width="1680" height="860" rx="36" fill="#FFFFFF" fill-opacity="0.82"/>
    <rect x="120.75" y="100.75" width="1678.5" height="858.5" rx="35.25" stroke="url(#cardBorder)" stroke-width="1.5"/>

    <rect x="152" y="132" width="440" height="796" rx="28" fill="url(#panel)"/>
    <rect x="152" y="132" width="440" height="796" rx="28" stroke="#DDE8ED"/>

    <rect x="192" y="182" width="116" height="34" rx="17" fill="#E6F8F5"/>
    <text x="250" y="204" text-anchor="middle" fill="#0F766E" font-size="17" font-weight="700" font-family="Aptos, Segoe UI Variable Display, Microsoft YaHei UI, PingFang SC, sans-serif" letter-spacing="2">PRODUCT OUTLINE</text>

    <text x="192" y="306" fill="#0F172A" font-size="108" font-weight="700" font-family="Aptos Display, Segoe UI Variable Display, Microsoft YaHei UI, PingFang SC, sans-serif">目录</text>
    <text x="196" y="358" fill="#0F766E" font-size="34" font-weight="700" font-family="Aptos, Segoe UI Variable Display, Microsoft YaHei UI, PingFang SC, sans-serif" letter-spacing="8">CONTENTS</text>

    <text x="192" y="450" fill="#1E293B" font-size="30" font-weight="700" font-family="Aptos, Segoe UI Variable Display, Microsoft YaHei UI, PingFang SC, sans-serif">智能客服工作平台产品设计说明</text>
    <text x="192" y="500" fill="#475569" font-size="21" font-weight="400" font-family="Aptos, Segoe UI, Microsoft YaHei UI, PingFang SC, sans-serif">
      <tspan x="192" dy="0">以更清晰的结构、更稳定的视觉节奏，呈现从战略洞察</tspan>
      <tspan x="192" dy="34">到角色落地的完整方案，帮助评审、沟通与实施快速对齐。</tspan>
    </text>

    <rect x="192" y="626" width="360" height="1" fill="#D7E4EA"/>

    <rect x="192" y="672" width="120" height="92" rx="24" fill="#F7FAFC"/>
    <rect x="192" y="672" width="120" height="92" rx="24" stroke="#DCE8EE"/>
    <text x="214" y="708" fill="#0F766E" font-size="17" font-weight="700" font-family="Aptos, Segoe UI, Microsoft YaHei UI, PingFang SC, sans-serif">01-06</text>
    <text x="214" y="744" fill="#0F172A" font-size="34" font-weight="700" font-family="Aptos Display, Segoe UI Variable Display, Microsoft YaHei UI, PingFang SC, sans-serif">6</text>
    <text x="252" y="744" fill="#334155" font-size="20" font-weight="600" font-family="Aptos, Segoe UI, Microsoft YaHei UI, PingFang SC, sans-serif">大章节</text>

    <rect x="328" y="672" width="224" height="92" rx="24" fill="#F7FAFC"/>
    <rect x="328" y="672" width="224" height="92" rx="24" stroke="#DCE8EE"/>
    <text x="350" y="708" fill="#0369A1" font-size="17" font-weight="700" font-family="Aptos, Segoe UI, Microsoft YaHei UI, PingFang SC, sans-serif">ROLE SYSTEM</text>
    <text x="350" y="744" fill="#0F172A" font-size="20" font-weight="700" font-family="Aptos, Segoe UI, Microsoft YaHei UI, PingFang SC, sans-serif">管理者视图 + 坐席视图</text>

    <rect x="192" y="786" width="360" height="108" rx="24" fill="#0F172A"/>
    <text x="224" y="828" fill="#A7F3D0" font-size="18" font-weight="700" font-family="Aptos, Segoe UI, Microsoft YaHei UI, PingFang SC, sans-serif" letter-spacing="2">DESIGN KEYWORDS</text>
    <text x="224" y="868" fill="#F8FAFC" font-size="22" font-weight="600" font-family="Aptos, Segoe UI, Microsoft YaHei UI, PingFang SC, sans-serif">专业 · 清晰 · 稳定 · 高效 · 可扩展</text>

    <g>
      <rect x="652" y="176" width="520" height="196" rx="28" fill="#FFFFFF" fill-opacity="0.92"/>
      <rect x="652.75" y="176.75" width="518.5" height="194.5" rx="27.25" stroke="#DCE8EE" stroke-width="1.5"/>
      <rect x="684" y="208" width="92" height="92" rx="26" fill="url(#accent)"/>
      <text x="730" y="267" text-anchor="middle" fill="#FFFFFF" font-size="34" font-weight="700" font-family="Aptos Display, Segoe UI Variable Display, Microsoft YaHei UI, PingFang SC, sans-serif">01</text>
      <text x="812" y="244" fill="#0F172A" font-size="18" font-weight="700" font-family="Aptos, Segoe UI, Microsoft YaHei UI, PingFang SC, sans-serif" letter-spacing="1.6">EXECUTIVE SUMMARY</text>
      <text x="812" y="284" fill="#0F172A" font-size="34" font-weight="700" font-family="Aptos, Segoe UI Variable Display, Microsoft YaHei UI, PingFang SC, sans-serif">执行摘要</text>
      <text x="812" y="328" fill="#64748B" font-size="19" font-weight="500" font-family="Aptos, Segoe UI, Microsoft YaHei UI, PingFang SC, sans-serif">重塑客服中心的工作范式</text>
      <rect x="812" y="334" width="124" height="8" rx="4" fill="#D1FAE5"/>
    </g>

    <g>
      <rect x="1192" y="176" width="520" height="196" rx="28" fill="#FFFFFF" fill-opacity="0.92"/>
      <rect x="1192.75" y="176.75" width="518.5" height="194.5" rx="27.25" stroke="#DCE8EE" stroke-width="1.5"/>
      <rect x="1224" y="208" width="92" height="92" rx="26" fill="#EFF6FF"/>
      <rect x="1224" y="208" width="92" height="92" rx="26" stroke="#BFDBFE"/>
      <text x="1270" y="267" text-anchor="middle" fill="#2563EB" font-size="34" font-weight="700" font-family="Aptos Display, Segoe UI Variable Display, Microsoft YaHei UI, PingFang SC, sans-serif">02</text>
      <text x="1352" y="244" fill="#0F172A" font-size="18" font-weight="700" font-family="Aptos, Segoe UI, Microsoft YaHei UI, PingFang SC, sans-serif" letter-spacing="1.6">PAIN POINT ANALYSIS</text>
      <text x="1352" y="284" fill="#0F172A" font-size="34" font-weight="700" font-family="Aptos, Segoe UI Variable Display, Microsoft YaHei UI, PingFang SC, sans-serif">行业挑战与痛点分析</text>
      <text x="1352" y="328" fill="#64748B" font-size="19" font-weight="500" font-family="Aptos, Segoe UI, Microsoft YaHei UI, PingFang SC, sans-serif">我们为何需要变革？</text>
      <rect x="1352" y="334" width="124" height="8" rx="4" fill="#DBEAFE"/>
    </g>

    <g>
      <rect x="652" y="398" width="520" height="196" rx="28" fill="#FFFFFF" fill-opacity="0.92"/>
      <rect x="652.75" y="398.75" width="518.5" height="194.5" rx="27.25" stroke="#DCE8EE" stroke-width="1.5"/>
      <rect x="684" y="430" width="92" height="92" rx="26" fill="#ECFEFF"/>
      <rect x="684" y="430" width="92" height="92" rx="26" stroke="#A5F3FC"/>
      <text x="730" y="489" text-anchor="middle" fill="#0891B2" font-size="34" font-weight="700" font-family="Aptos Display, Segoe UI Variable Display, Microsoft YaHei UI, PingFang SC, sans-serif">03</text>
      <text x="812" y="466" fill="#0F172A" font-size="18" font-weight="700" font-family="Aptos, Segoe UI, Microsoft YaHei UI, PingFang SC, sans-serif" letter-spacing="1.6">POSITIONING &amp; DESIGN</text>
      <text x="812" y="506" fill="#0F172A" font-size="34" font-weight="700" font-family="Aptos, Segoe UI Variable Display, Microsoft YaHei UI, PingFang SC, sans-serif">产品核心定位与设计理念</text>
      <text x="812" y="548" fill="#64748B" font-size="19" font-weight="500" font-family="Aptos, Segoe UI, Microsoft YaHei UI, PingFang SC, sans-serif">构建双驾驶舱模式，驱动服务效能提升</text>
      <rect x="812" y="556" width="160" height="8" rx="4" fill="#CFFAFE"/>
    </g>

    <g>
      <rect x="1192" y="398" width="520" height="196" rx="28" fill="#FFFFFF" fill-opacity="0.92"/>
      <rect x="1192.75" y="398.75" width="518.5" height="194.5" rx="27.25" stroke="#DCE8EE" stroke-width="1.5"/>
      <rect x="1224" y="430" width="92" height="92" rx="26" fill="#F0FDF4"/>
      <rect x="1224" y="430" width="92" height="92" rx="26" stroke="#BBF7D0"/>
      <text x="1270" y="489" text-anchor="middle" fill="#16A34A" font-size="34" font-weight="700" font-family="Aptos Display, Segoe UI Variable Display, Microsoft YaHei UI, PingFang SC, sans-serif">04</text>
      <text x="1352" y="466" fill="#0F172A" font-size="18" font-weight="700" font-family="Aptos, Segoe UI, Microsoft YaHei UI, PingFang SC, sans-serif" letter-spacing="1.6">MANAGER VIEW</text>
      <text x="1352" y="506" fill="#0F172A" font-size="32" font-weight="700" font-family="Aptos, Segoe UI Variable Display, Microsoft YaHei UI, PingFang SC, sans-serif">功能深度解析：管理者视图</text>
      <text x="1352" y="548" fill="#64748B" font-size="19" font-weight="500" font-family="Aptos, Segoe UI, Microsoft YaHei UI, PingFang SC, sans-serif">打造全程监控的高效管理驾驶舱</text>
      <rect x="1352" y="556" width="160" height="8" rx="4" fill="#DCFCE7"/>
    </g>

    <g>
      <rect x="652" y="620" width="520" height="196" rx="28" fill="#FFFFFF" fill-opacity="0.92"/>
      <rect x="652.75" y="620.75" width="518.5" height="194.5" rx="27.25" stroke="#DCE8EE" stroke-width="1.5"/>
      <rect x="684" y="652" width="92" height="92" rx="26" fill="#F8FAFC"/>
      <rect x="684" y="652" width="92" height="92" rx="26" stroke="#D7E3EA"/>
      <text x="730" y="711" text-anchor="middle" fill="#0F766E" font-size="34" font-weight="700" font-family="Aptos Display, Segoe UI Variable Display, Microsoft YaHei UI, PingFang SC, sans-serif">05</text>
      <text x="812" y="688" fill="#0F172A" font-size="18" font-weight="700" font-family="Aptos, Segoe UI, Microsoft YaHei UI, PingFang SC, sans-serif" letter-spacing="1.6">AGENT VIEW</text>
      <text x="812" y="728" fill="#0F172A" font-size="32" font-weight="700" font-family="Aptos, Segoe UI Variable Display, Microsoft YaHei UI, PingFang SC, sans-serif">功能深度解析：坐席视图</text>
      <text x="812" y="770" fill="#64748B" font-size="19" font-weight="500" font-family="Aptos, Segoe UI, Microsoft YaHei UI, PingFang SC, sans-serif">打造自动化辅助的高效工作驾驶舱</text>
      <rect x="812" y="778" width="160" height="8" rx="4" fill="#D8F3ED"/>
    </g>

    <g>
      <rect x="1192" y="620" width="520" height="196" rx="28" fill="#FFFFFF" fill-opacity="0.92"/>
      <rect x="1192.75" y="620.75" width="518.5" height="194.5" rx="27.25" stroke="#DCE8EE" stroke-width="1.5"/>
      <rect x="1224" y="652" width="92" height="92" rx="26" fill="#FFF7ED"/>
      <rect x="1224" y="652" width="92" height="92" rx="26" stroke="#FED7AA"/>
      <text x="1270" y="711" text-anchor="middle" fill="#EA580C" font-size="34" font-weight="700" font-family="Aptos Display, Segoe UI Variable Display, Microsoft YaHei UI, PingFang SC, sans-serif">06</text>
      <text x="1352" y="688" fill="#0F172A" font-size="18" font-weight="700" font-family="Aptos, Segoe UI, Microsoft YaHei UI, PingFang SC, sans-serif" letter-spacing="1.6">VALUE SUMMARY</text>
      <text x="1352" y="728" fill="#0F172A" font-size="32" font-weight="700" font-family="Aptos, Segoe UI Variable Display, Microsoft YaHei UI, PingFang SC, sans-serif">产品核心价值总结</text>
      <text x="1352" y="770" fill="#64748B" font-size="19" font-weight="500" font-family="Aptos, Segoe UI, Microsoft YaHei UI, PingFang SC, sans-serif">数据驱动决策，实现客服中心全面升级</text>
      <rect x="1352" y="778" width="160" height="8" rx="4" fill="#FFEDD5"/>
    </g>

    <rect x="652" y="850" width="1060" height="70" rx="22" fill="#F8FBFD"/>
    <rect x="652" y="850" width="1060" height="70" rx="22" stroke="#DCE8EE"/>
    <text x="690" y="895" fill="#334155" font-size="20" font-weight="600" font-family="Aptos, Segoe UI, Microsoft YaHei UI, PingFang SC, sans-serif">阅读路径建议：执行摘要 → 行业挑战 → 核心定位 → 管理者视图 → 坐席视图 → 价值总结</text>
  </g>
</svg>
